<?xml version="1.0" standalone="no"?>
<svg version="1.0" xmlns="http://www.w3.org/2000/svg"
 width="500" height="500" viewBox="0 0 500 500"
 preserveAspectRatio="xMidYMid meet">

<g transform="translate(0,500) scale(0.100000,-0.100000)"
fill="#2E6417" stroke="none">
<path d="M2505 4888 c-4 -9 -5 -37 -3 -64 l3 -49 150 -12 c177 -14 293 -32
405 -62 19 -6 51 -14 70 -19 174 -46 428 -162 603 -275 196 -127 399 -310 546
-492 278 -346 445 -758 492 -1210 14 -146 7 -429 -16 -565 -14 -84 -68 -320
-81 -354 -6 -16 104 -52 118 -38 22 22 80 272 103 442 26 196 17 536 -19 722
-51 265 -120 463 -242 697 -59 113 -164 284 -210 341 -99 123 -237 267 -339
355 -39 33 -72 62 -75 65 -18 18 -130 98 -215 152 -270 175 -502 267 -855 338
-102 21 -172 29 -297 36 -113 6 -134 4 -138 -8z"/>
<path d="M1680 4760 c-58 -22 -114 -44 -125 -49 -11 -5 -60 -28 -110 -51 -79
-38 -312 -173 -325 -190 -3 -3 -21 -17 -40 -30 -19 -13 -37 -27 -40 -30 -3 -3
-25 -21 -50 -40 -72 -56 -120 -99 -209 -190 -240 -246 -413 -513 -540 -838
-15 -39 -17 -54 -8 -57 54 -20 101 -35 107 -35 4 0 20 33 35 73 73 185 186
383 329 572 127 168 412 425 581 524 22 13 56 33 75 44 119 69 322 159 445
197 22 7 43 15 47 19 4 4 0 32 -9 64 -19 70 -20 70 -163 17z"/>
<path d="M2502 4593 l3 -68 80 -2 c265 -7 530 -73 793 -199 263 -125 401 -228
631 -468 34 -36 66 -66 70 -66 3 0 25 17 49 38 27 24 41 43 37 52 -3 8 -63 72
-133 141 -227 225 -456 376 -747 491 -91 36 -277 91 -370 109 -84 17 -286 39
-353 39 l-63 0 3 -67z"/>
<path d="M2325 4404 c-48 -4 -172 -24 -266 -43 -81 -17 -285 -88 -386 -136
-202 -95 -377 -218 -535 -378 -203 -205 -353 -438 -446 -697 -51 -142 -70
-218 -102 -404 -13 -75 -13 -424 -1 -497 5 -30 15 -85 21 -124 41 -247 186
-582 332 -770 241 -311 485 -503 811 -641 128 -54 285 -101 412 -122 161 -28
323 -36 472 -23 82 7 168 17 193 22 122 26 147 32 175 40 273 81 485 189 685
348 229 182 396 388 532 656 69 137 138 338 162 470 9 50 21 114 26 144 6 30
10 127 10 215 0 327 -63 603 -200 878 -49 100 -159 282 -179 298 -3 3 -26 30
-51 60 -168 207 -359 364 -600 493 -131 70 -349 148 -490 175 -30 6 -80 16
-110 22 -57 11 -378 21 -465 14z m270 -619 c325 -57 560 -270 636 -576 26
-104 28 -280 5 -392 -71 -342 -323 -615 -620 -672 -152 -29 -289 -17 -427 39
-36 14 -71 26 -78 26 -11 0 -12 -88 -10 -437 4 -404 3 -441 -14 -470 -24 -44
-60 -66 -110 -67 -60 -1 -101 19 -125 62 -20 37 -21 51 -26 882 -4 465 -9 981
-11 1148 -6 332 -1 373 45 417 51 49 155 44 199 -9 11 -13 20 -12 79 10 144
55 294 67 457 39z"/>
<path d="M2305 3511 c-61 -17 -124 -51 -164 -86 l-41 -37 0 -402 c0 -366 2
-403 18 -428 53 -80 209 -148 343 -148 212 0 409 154 490 384 24 69 29 96 29
186 0 60 -6 128 -15 159 -61 232 -250 368 -520 377 -60 2 -123 0 -140 -5z"/>
<path d="M934 3987 c-208 -214 -369 -469 -471 -747 -74 -203 -119 -421 -130
-622 l-6 -128 66 0 67 0 0 58 c0 56 24 273 35 322 4 14 11 45 17 70 38 163
113 366 190 510 99 186 203 326 358 481 l96 96 -39 47 c-21 25 -43 46 -47 46
-4 0 -65 -60 -136 -133z"/>
<path d="M90 2388 c0 -345 134 -804 323 -1113 53 -86 167 -257 176 -265 4 -3
26 -30 51 -60 96 -119 246 -263 411 -395 35 -27 169 -115 245 -160 128 -76
319 -160 473 -209 617 -195 1280 -136 1851 166 176 93 294 172 433 289 l27 24
-43 48 -43 47 -81 -63 c-275 -217 -607 -373 -935 -441 -228 -47 -543 -60 -776
-31 -248 31 -594 141 -775 247 -26 15 -50 28 -53 28 -3 0 -62 38 -132 84 -469
309 -806 780 -952 1331 -39 148 -70 359 -70 483 l0 82 -65 0 -65 0 0 -92z"/>
<path d="M4540 2427 c0 -152 -53 -435 -112 -597 -11 -30 -22 -64 -25 -75 -3
-11 -34 -78 -68 -150 -60 -126 -184 -323 -262 -415 -45 -54 -202 -211 -258
-260 -134 -117 -364 -257 -525 -320 -30 -12 -68 -28 -85 -35 -16 -7 -51 -19
-77 -26 -27 -7 -48 -18 -48 -24 0 -32 32 -115 45 -115 15 0 174 57 245 88 121
52 221 109 355 200 457 311 774 780 895 1323 24 105 50 318 50 401 l0 58 -65
0 -65 0 0 -53z"/>
<path d="M487 1862 c-55 -16 -57 -17 -52 -44 17 -76 145 -360 195 -433 17 -24
30 -46 30 -49 0 -3 28 -45 61 -93 151 -216 328 -392 536 -534 90 -61 268 -169
278 -169 3 0 28 -11 57 -24 266 -121 500 -179 776 -192 l132 -7 0 65 0 65
-112 6 c-170 9 -291 31 -493 87 -75 20 -202 73 -316 130 -452 227 -794 603
-979 1076 -22 57 -40 110 -40 118 0 19 2 19 -73 -2z"/>
</g>
</svg>
